<svg width="37" height="37" viewBox="0 0 37 37" fill="none" xmlns="http://www.w3.org/2000/svg">
<path d="M32.4658 0.575073H4.46576C2.24576 0.575073 0.465759 2.35507 0.465759 4.57507V12.5751H4.46576V4.57507H32.4658V32.5751H4.46576V24.5751H0.465759V32.5751C0.465759 33.6359 0.887186 34.6534 1.63733 35.4035C2.38748 36.1536 3.40489 36.5751 4.46576 36.5751H32.4658C33.5266 36.5751 34.544 36.1536 35.2942 35.4035C36.0443 34.6534 36.4658 33.6359 36.4658 32.5751V4.57507C36.4658 3.51421 36.0443 2.49679 35.2942 1.74665C34.544 0.9965 33.5266 0.575073 32.4658 0.575073ZM14.6258 25.7351L17.4658 28.5751L27.4658 18.5751L17.4658 8.57507L14.6258 11.3951L19.8058 16.5751H0.465759V20.5751H19.8058L14.6258 25.7351Z" fill="black"/>
</svg>
